<svg width="40" height="40" viewBox="0 0 40 40" fill="none" xmlns="http://www.w3.org/2000/svg">
<rect width="6.628" height="6.628" fill="#D9D9D9"/>
<rect y="8.285" width="6.628" height="6.628" fill="#D9D9D9"/>
<rect y="16.57" width="6.628" height="6.628" fill="#D9D9D9"/>
<rect y="24.855" width="6.628" height="6.628" fill="#D9D9D9"/>
<rect y="33.372" width="6.628" height="6.628" fill="#D9D9D9"/>
<rect x="8.285" width="6.628" height="6.628" fill="#D9D9D9"/>
<rect x="16.57" width="6.628" height="6.628" fill="#D9D9D9"/>
<rect x="24.855" width="6.628" height="6.628" fill="#D9D9D9"/>
<rect x="33.372" width="6.628" height="6.628" fill="#D9D9D9"/>
<rect x="8.285" y="8.285" width="6.628" height="6.628" fill="#D9D9D9"/>
<rect x="8.285" y="16.57" width="6.628" height="6.628" fill="#D9D9D9"/>
<rect x="8.285" y="24.855" width="6.628" height="6.628" fill="#D9D9D9"/>
<rect x="8.285" y="33.372" width="6.628" height="6.628" fill="#D9D9D9"/>
<rect x="16.57" y="8.285" width="6.628" height="6.628" fill="#D9D9D9"/>
<rect x="24.855" y="8.285" width="6.628" height="6.628" fill="#D9D9D9"/>
<rect x="33.372" y="8.285" width="6.628" height="6.628" fill="#D9D9D9"/>
<rect x="16.57" y="16.57" width="6.628" height="6.628" fill="#D9D9D9"/>
<rect x="16.57" y="24.855" width="6.628" height="6.628" fill="#D9D9D9"/>
<rect x="16.57" y="33.372" width="6.628" height="6.628" fill="#D9D9D9"/>
<rect x="24.855" y="16.57" width="6.628" height="6.628" fill="#D9D9D9"/>
<rect x="33.372" y="16.57" width="6.628" height="6.628" fill="#D9D9D9"/>
<rect x="24.855" y="24.855" width="6.628" height="6.628" fill="#D9D9D9"/>
<rect x="24.855" y="33.372" width="6.628" height="6.628" fill="#D9D9D9"/>
<rect x="33.372" y="24.855" width="6.628" height="6.628" fill="#D9D9D9"/>
<rect x="33.372" y="33.372" width="6.628" height="6.628" fill="#D9D9D9"/>
</svg>
